<mxfile host="app.diagrams.net" agent="Mozilla/5.0 (Windows NT 10.0; Win64; x64) AppleWebKit/537.36 (KHTML, like Gecko) Chrome/131.0.0.0 Safari/537.36" version="25.0.3">
  <diagram name="Page-1" id="Muhfh7AlO2zSzMlMj5tm">
    <mxGraphModel dx="1434" dy="738" grid="1" gridSize="10" guides="1" tooltips="1" connect="1" arrows="1" fold="1" page="1" pageScale="1" pageWidth="850" pageHeight="1100" math="0" shadow="0">
      <root>
        <mxCell id="0" />
        <mxCell id="1" parent="0" />
        <mxCell id="3LyCAKfPFcBEBjRgPM71-1" value="Profile Pic" style="whiteSpace=wrap;html=1;aspect=fixed;" vertex="1" parent="1">
          <mxGeometry x="20" y="30" width="240" height="240" as="geometry" />
        </mxCell>
        <mxCell id="3LyCAKfPFcBEBjRgPM71-2" value="Username" style="rounded=0;whiteSpace=wrap;html=1;" vertex="1" parent="1">
          <mxGeometry x="340" y="120" width="480" height="60" as="geometry" />
        </mxCell>
        <mxCell id="CHcQF7DN2AREBfP7WIdm-1" value="" style="triangle;whiteSpace=wrap;html=1;" vertex="1" parent="1">
          <mxGeometry x="348" y="400" width="20" height="30" as="geometry" />
        </mxCell>
        <mxCell id="CHcQF7DN2AREBfP7WIdm-3" value="" style="triangle;whiteSpace=wrap;html=1;" vertex="1" parent="1">
          <mxGeometry x="348" y="580" width="20" height="30" as="geometry" />
        </mxCell>
        <mxCell id="CHcQF7DN2AREBfP7WIdm-4" value="" style="triangle;whiteSpace=wrap;html=1;" vertex="1" parent="1">
          <mxGeometry x="348" y="495" width="20" height="30" as="geometry" />
        </mxCell>
        <mxCell id="CHcQF7DN2AREBfP7WIdm-5" value="" style="triangle;whiteSpace=wrap;html=1;" vertex="1" parent="1">
          <mxGeometry x="348" y="770" width="20" height="30" as="geometry" />
        </mxCell>
        <mxCell id="CHcQF7DN2AREBfP7WIdm-6" value="" style="triangle;whiteSpace=wrap;html=1;" vertex="1" parent="1">
          <mxGeometry x="348" y="670" width="20" height="30" as="geometry" />
        </mxCell>
        <mxCell id="CHcQF7DN2AREBfP7WIdm-9" value="Most Recent" style="text;html=1;align=center;verticalAlign=middle;resizable=0;points=[];autosize=1;strokeColor=none;fillColor=none;" vertex="1" parent="1">
          <mxGeometry x="393" y="400" width="90" height="30" as="geometry" />
        </mxCell>
        <mxCell id="CHcQF7DN2AREBfP7WIdm-10" value="2nd Most Recent" style="text;html=1;align=center;verticalAlign=middle;resizable=0;points=[];autosize=1;strokeColor=none;fillColor=none;" vertex="1" parent="1">
          <mxGeometry x="393" y="500" width="110" height="30" as="geometry" />
        </mxCell>
        <mxCell id="CHcQF7DN2AREBfP7WIdm-11" value="3rd Most Recent" style="text;html=1;align=center;verticalAlign=middle;resizable=0;points=[];autosize=1;strokeColor=none;fillColor=none;" vertex="1" parent="1">
          <mxGeometry x="393" y="580" width="110" height="30" as="geometry" />
        </mxCell>
        <mxCell id="CHcQF7DN2AREBfP7WIdm-12" value="4th Most Recent" style="text;html=1;align=center;verticalAlign=middle;resizable=0;points=[];autosize=1;strokeColor=none;fillColor=none;" vertex="1" parent="1">
          <mxGeometry x="393" y="670" width="110" height="30" as="geometry" />
        </mxCell>
        <mxCell id="CHcQF7DN2AREBfP7WIdm-13" value="5th Most Recent" style="text;html=1;align=center;verticalAlign=middle;resizable=0;points=[];autosize=1;strokeColor=none;fillColor=none;" vertex="1" parent="1">
          <mxGeometry x="393" y="770" width="110" height="30" as="geometry" />
        </mxCell>
        <mxCell id="CHcQF7DN2AREBfP7WIdm-14" value="Click Here To Load a Specific File!" style="rounded=0;whiteSpace=wrap;html=1;" vertex="1" parent="1">
          <mxGeometry x="365" y="850" width="120" height="60" as="geometry" />
        </mxCell>
      </root>
    </mxGraphModel>
  </diagram>
</mxfile>
